<?xml version="1.0" encoding="UTF-8"?>
<svg id="Camada_1" data-name="Camada 1" xmlns="http://www.w3.org/2000/svg" xmlns:xlink="http://www.w3.org/1999/xlink" viewBox="0 0 282.08 325.72">
  <defs>
    <style>
      .cls-1 {
        fill: none;
      }

      .cls-2 {
        fill: #69baa8;
      }

      .cls-3 {
        fill: #fac495;
      }

      .cls-4 {
        fill: #fedab8;
      }

      .cls-5 {
        fill: #fdedd5;
      }

      .cls-6 {
        fill: #ffa974;
        stroke: #fedab8;
        stroke-miterlimit: 10;
        stroke-width: 8px;
      }

      .cls-7 {
        fill: #f7af7f;
      }

      .cls-8 {
        fill: #4ca396;
      }

      .cls-9 {
        fill: #27354e;
      }

      .cls-10 {
        fill: #89d2c0;
      }

      .cls-11 {
        clip-path: url(#clippath);
      }

      .cls-12 {
        fill: #f99e6c;
      }
    </style>
    <clipPath id="clippath">
      <polygon class="cls-1" points="267 233.73 267 88.29 141.04 15.57 15.09 88.29 15.09 233.73 141.04 306.45 267 233.73"/>
    </clipPath>
  </defs>
  <g>
    <polygon class="cls-5" points="5 241.4 5 84.32 141.04 5.77 277.08 84.32 277.08 241.4 141.04 319.95 5 241.4"/>
    <path class="cls-9" d="M141.04,11.55l131.04,75.66v151.31l-131.04,75.66L10,238.52V87.2L141.04,11.55M141.04,0l-5,2.89L5,78.54l-5,2.89v162.86l5,2.89,131.04,75.66,5,2.89,5-2.89,131.04-75.66,5-2.89V81.43l-5-2.89L146.04,2.89l-5-2.89h0Z"/>
  </g>
  <g class="cls-11">
    <g>
      <line class="cls-6" x1="212.16" y1="121.61" x2="157.21" y2="153.34"/>
      <line class="cls-6" x1="169.3" y1="263.36" x2="87.05" y2="310.85"/>
      <polygon class="cls-4" points="51.13 199.41 37.02 199.44 138.92 140.6 142.44 146.69 51.13 199.41"/>
      <line class="cls-6" x1="133.6" y1="88.75" x2="38.03" y2="143.93"/>
      <line class="cls-6" x1="257.65" y1="150.04" x2="205.29" y2="180.27"/>
      <line class="cls-6" x1="88.82" y1="115.45" x2="175.39" y2="165.44"/>
      <line class="cls-6" x1="41.56" y1="100.82" x2="75.94" y2="120.67"/>
      <line class="cls-6" x1="172.42" y1="88.3" x2="230.16" y2="121.64"/>
      <line class="cls-6" x1="86.63" y1="63.15" x2="130.35" y2="88.39"/>
      <polygon class="cls-4" points="91.88 199.44 65.12 183.99 61.61 190.08 77.82 199.44 91.88 199.44"/>
      <polygon class="cls-4" points="116.39 256.04 109.35 260.1 199.52 312.16 203.04 306.07 116.39 256.04"/>
      <polygon class="cls-4" points="242.93 190.27 212.86 172.91 209.35 179 235.9 194.33 242.93 190.27"/>
      <polygon class="cls-4" points="176.69 68.52 115.55 103.81 119.55 110.74 184.69 73.14 176.69 68.52"/>
    </g>
    <g>
      <g>
        <polygon class="cls-10" points="98.05 158.29 98.05 135.79 78.57 124.54 59.08 135.79 59.08 158.29 78.57 169.54 98.05 158.29"/>
        <polygon class="cls-8" points="78.57 169.54 59.08 158.29 59.08 135.85 78.57 147.1 78.57 169.54"/>
        <polygon class="cls-2" points="78.57 169.54 98.05 158.29 98.05 135.85 78.57 147.1 78.57 169.54"/>
      </g>
      <g>
        <polygon class="cls-3" points="56.33 121.06 56.33 98.56 36.85 87.31 17.36 98.56 17.36 121.06 36.85 132.31 56.33 121.06"/>
        <polygon class="cls-7" points="36.85 132.31 17.36 121.06 17.36 98.62 36.85 109.87 36.85 132.31"/>
        <polygon class="cls-12" points="36.85 132.31 56.33 121.06 56.33 98.62 36.85 109.87 36.85 132.31"/>
      </g>
      <g>
        <polygon class="cls-3" points="56.33 181.47 56.33 158.97 36.84 147.72 17.35 158.97 17.35 181.47 36.84 192.72 56.33 181.47"/>
        <polygon class="cls-7" points="36.84 192.72 17.35 181.47 17.35 159.03 36.84 170.28 36.84 192.72"/>
        <polygon class="cls-12" points="36.84 192.72 56.33 181.47 56.33 159.03 36.84 170.28 36.84 192.72"/>
      </g>
      <g>
        <polygon class="cls-3" points="56.33 162.75 56.33 140.25 36.84 129 17.35 140.25 17.35 162.75 36.84 174 56.33 162.75"/>
        <polygon class="cls-7" points="36.84 174 17.35 162.75 17.35 140.31 36.84 151.56 36.84 174"/>
        <polygon class="cls-12" points="36.84 174 56.33 162.75 56.33 140.31 36.84 151.56 36.84 174"/>
      </g>
      <g>
        <polygon class="cls-3" points="160.53 70.59 160.53 48.09 141.04 36.84 121.55 48.09 121.55 70.59 141.04 81.84 160.53 70.59"/>
        <polygon class="cls-7" points="141.04 81.84 121.55 70.59 121.55 48.15 141.04 59.4 141.04 81.84"/>
        <polygon class="cls-12" points="141.04 81.84 160.53 70.59 160.53 48.15 141.04 59.4 141.04 81.84"/>
      </g>
      <g>
        <polygon class="cls-3" points="109.44 86.03 109.44 63.53 89.95 52.28 70.47 63.53 70.47 86.03 89.95 97.28 109.44 86.03"/>
        <polygon class="cls-7" points="89.95 97.28 70.47 86.03 70.47 63.59 89.95 74.84 89.95 97.28"/>
        <polygon class="cls-12" points="89.95 97.28 109.44 86.03 109.44 63.59 89.95 74.84 89.95 97.28"/>
      </g>
      <g>
        <polygon class="cls-3" points="266.11 135.79 266.11 113.29 246.62 102.04 227.14 113.29 227.14 135.79 246.62 147.04 266.11 135.79"/>
        <polygon class="cls-7" points="246.62 147.04 227.14 135.79 227.14 113.35 246.62 124.6 246.62 147.04"/>
        <polygon class="cls-12" points="246.62 147.04 266.11 135.79 266.11 113.35 246.62 124.6 246.62 147.04"/>
      </g>
      <g>
        <polygon class="cls-3" points="266.11 121.2 266.11 98.7 246.62 87.45 227.14 98.7 227.14 121.2 246.62 132.45 266.11 121.2"/>
        <polygon class="cls-7" points="246.62 132.45 227.14 121.2 227.14 98.76 246.62 110.01 246.62 132.45"/>
        <polygon class="cls-12" points="246.62 132.45 266.11 121.2 266.11 98.76 246.62 110.01 246.62 132.45"/>
      </g>
      <g>
        <polygon class="cls-10" points="166.42 188.28 166.42 165.78 146.94 154.53 127.45 165.78 127.45 188.28 146.94 199.53 166.42 188.28"/>
        <polygon class="cls-8" points="146.94 199.53 127.45 188.28 127.45 165.84 146.94 177.09 146.94 199.53"/>
        <polygon class="cls-2" points="146.94 199.53 166.42 188.28 166.42 165.84 146.94 177.09 146.94 199.53"/>
      </g>
      <g>
        <polygon class="cls-10" points="239.47 150.8 239.47 128.3 219.98 117.05 200.5 128.3 200.5 150.8 219.98 162.05 239.47 150.8"/>
        <polygon class="cls-8" points="219.98 162.05 200.5 150.8 200.5 128.36 219.98 139.61 219.98 162.05"/>
        <polygon class="cls-2" points="219.98 162.05 239.47 150.8 239.47 128.36 219.98 139.61 219.98 162.05"/>
      </g>
      <g>
        <polygon class="cls-3" points="122.16 188.28 122.16 165.78 102.68 154.53 83.19 165.78 83.19 188.28 102.68 199.53 122.16 188.28"/>
        <polygon class="cls-7" points="102.68 199.53 83.19 188.28 83.19 165.84 102.68 177.09 102.68 199.53"/>
        <polygon class="cls-12" points="102.68 199.53 122.16 188.28 122.16 165.84 102.68 177.09 102.68 199.53"/>
      </g>
      <g>
        <polygon class="cls-3" points="189.29 272.56 189.29 250.06 169.81 238.81 150.32 250.06 150.32 272.56 169.81 283.81 189.29 272.56"/>
        <polygon class="cls-7" points="169.81 283.81 150.32 272.56 150.32 250.12 169.81 261.37 169.81 283.81"/>
        <polygon class="cls-12" points="169.81 283.81 189.29 272.56 189.29 250.12 169.81 261.37 169.81 283.81"/>
      </g>
      <g>
        <polygon class="cls-3" points="172.58 295.06 172.58 272.56 153.09 261.31 133.61 272.56 133.61 295.06 153.09 306.31 172.58 295.06"/>
        <polygon class="cls-7" points="153.09 306.31 133.61 295.06 133.61 272.62 153.09 283.87 153.09 306.31"/>
        <polygon class="cls-12" points="153.09 306.31 172.58 295.06 172.58 272.62 153.09 283.87 153.09 306.31"/>
      </g>
      <g>
        <polygon class="cls-3" points="145.89 114.58 145.89 92.07 126.4 80.82 106.92 92.07 106.92 114.58 126.4 125.83 145.89 114.58"/>
        <polygon class="cls-7" points="126.4 125.83 106.92 114.58 106.92 92.14 126.4 103.39 126.4 125.83"/>
        <polygon class="cls-12" points="126.4 125.83 145.89 114.58 145.89 92.14 126.4 103.39 126.4 125.83"/>
      </g>
      <g>
        <polygon class="cls-3" points="197.19 118.89 197.19 96.39 177.7 85.14 158.22 96.39 158.22 118.89 177.7 130.14 197.19 118.89"/>
        <polygon class="cls-7" points="177.7 130.14 158.22 118.89 158.22 96.45 177.7 107.7 177.7 130.14"/>
        <polygon class="cls-12" points="177.7 130.14 197.19 118.89 197.19 96.45 177.7 107.7 177.7 130.14"/>
      </g>
      <g>
        <polygon class="cls-3" points="197.19 101.17 197.19 78.67 177.7 67.42 158.22 78.67 158.22 101.17 177.7 112.42 197.19 101.17"/>
        <polygon class="cls-7" points="177.7 112.42 158.22 101.17 158.22 78.73 177.7 89.98 177.7 112.42"/>
        <polygon class="cls-12" points="177.7 112.42 197.19 101.17 197.19 78.73 177.7 89.98 177.7 112.42"/>
      </g>
      <g>
        <polygon class="cls-3" points="160.53 60.57 160.53 38.07 141.04 26.82 121.55 38.07 121.55 60.57 141.04 71.82 160.53 60.57"/>
        <polygon class="cls-7" points="141.04 71.82 121.55 60.57 121.55 38.13 141.04 49.38 141.04 71.82"/>
        <polygon class="cls-12" points="141.04 71.82 160.53 60.57 160.53 38.13 141.04 49.38 141.04 71.82"/>
      </g>
      <g>
        <polygon class="cls-3" points="210.68 188.28 210.68 165.78 191.2 154.53 171.71 165.78 171.71 188.28 191.2 199.53 210.68 188.28"/>
        <polygon class="cls-7" points="191.2 199.53 171.71 188.28 171.71 165.84 191.2 177.09 191.2 199.53"/>
        <polygon class="cls-12" points="191.2 199.53 210.68 188.28 210.68 165.84 191.2 177.09 191.2 199.53"/>
      </g>
      <g>
        <polygon class="cls-3" points="210.68 169.05 210.68 146.55 191.2 135.3 171.71 146.55 171.71 169.05 191.2 180.3 210.68 169.05"/>
        <polygon class="cls-7" points="191.2 180.3 171.71 169.05 171.71 146.61 191.2 157.86 191.2 180.3"/>
        <polygon class="cls-12" points="191.2 180.3 210.68 169.05 210.68 146.61 191.2 157.86 191.2 180.3"/>
      </g>
      <g>
        <polygon class="cls-3" points="117.54 283.98 117.54 261.48 98.05 250.23 78.57 261.48 78.57 283.98 98.05 295.23 117.54 283.98"/>
        <polygon class="cls-7" points="98.05 295.23 78.57 283.98 78.57 261.54 98.05 272.79 98.05 295.23"/>
        <polygon class="cls-12" points="98.05 295.23 117.54 283.98 117.54 261.54 98.05 272.79 98.05 295.23"/>
      </g>
      <g>
        <polygon class="cls-3" points="117.54 272.56 117.54 250.06 98.05 238.81 78.57 250.06 78.57 272.56 98.05 283.81 117.54 272.56"/>
        <polygon class="cls-7" points="98.05 283.81 78.57 272.56 78.57 250.12 98.05 261.37 98.05 283.81"/>
        <polygon class="cls-12" points="98.05 283.81 117.54 272.56 117.54 250.12 98.05 261.37 98.05 283.81"/>
      </g>
      <g>
        <polygon class="cls-3" points="267.57 175.88 267.57 153.38 248.09 142.13 228.6 153.38 228.6 175.88 248.09 187.13 267.57 175.88"/>
        <polygon class="cls-7" points="248.09 187.13 228.6 175.88 228.6 153.44 248.09 164.69 248.09 187.13"/>
        <polygon class="cls-12" points="248.09 187.13 267.57 175.88 267.57 153.44 248.09 164.69 248.09 187.13"/>
      </g>
    </g>
  </g>
  <path class="cls-9" d="M78.78,96.9c-7.97,0-14.43,6.46-14.43,14.43,0,9.67,11.4,23.15,11.4,23.15,2.17,1.92,3.88,1.99,6.05,0,0,0,11.4-12.68,11.4-23.15,0-7.97-6.46-14.43-14.43-14.43ZM78.78,119.8c-4.34,0-7.85-3.51-7.85-7.85s3.51-7.85,7.85-7.85,7.85,3.51,7.85,7.85-3.51,7.85-7.85,7.85Z"/>
  <path class="cls-9" d="M220.17,91.99c-7.97,0-14.43,6.46-14.43,14.43,0,9.67,11.4,23.15,11.4,23.15,2.17,1.92,3.88,1.99,6.05,0,0,0,11.4-12.68,11.4-23.15,0-7.97-6.46-14.43-14.43-14.43ZM220.17,114.89c-4.34,0-7.85-3.51-7.85-7.85s3.51-7.85,7.85-7.85,7.85,3.51,7.85,7.85-3.51,7.85-7.85,7.85Z"/>
  <path class="cls-9" d="M146.66,110.47c-11.73,0-21.25,9.51-21.25,21.25,0,14.23,16.79,34.08,16.79,34.08,3.19,2.83,5.71,2.93,8.91,0,0,0,16.79-18.68,16.79-34.08,0-11.73-9.51-21.25-21.25-21.25ZM146.66,144.19c-6.38,0-11.56-5.17-11.56-11.56s5.17-11.56,11.56-11.56,11.56,5.18,11.56,11.56-5.18,11.56-11.56,11.56Z"/>
  <g>
    <path class="cls-9" d="M61.45,212.37v16.13c0,3.55-.92,6.19-2.77,7.92-1.85,1.73-4.55,2.59-8.1,2.59-1.87,0-3.65-.23-5.33-.68-1.68-.46-3.07-1.12-4.18-1.98l2.23-4.03c.82.67,1.85,1.21,3.1,1.6,1.25.4,2.5.59,3.74.59,1.94,0,3.38-.44,4.3-1.31s1.39-2.2,1.39-3.98v-.83c-1.46,1.61-3.5,2.41-6.12,2.41-1.78,0-3.4-.39-4.88-1.17-1.48-.78-2.65-1.88-3.51-3.29-.86-1.42-1.3-3.05-1.3-4.9s.43-3.48,1.3-4.9c.86-1.42,2.03-2.51,3.51-3.29,1.48-.78,3.1-1.17,4.88-1.17,2.81,0,4.94.92,6.41,2.77v-2.48h5.33ZM54.48,224.88c.95-.88,1.42-2.02,1.42-3.44s-.47-2.56-1.42-3.44c-.95-.88-2.17-1.31-3.65-1.31s-2.71.44-3.67,1.31c-.96.88-1.44,2.02-1.44,3.44s.48,2.56,1.44,3.44c.96.88,2.18,1.31,3.67,1.31s2.71-.44,3.65-1.31Z"/>
    <path class="cls-9" d="M79.1,227.08c.78-.3,1.51-.77,2.18-1.42l2.99,3.24c-1.82,2.09-4.49,3.13-7.99,3.13-2.18,0-4.12-.43-5.8-1.28-1.68-.85-2.98-2.03-3.89-3.55-.91-1.51-1.37-3.23-1.37-5.15s.45-3.61,1.35-5.13c.9-1.52,2.14-2.71,3.71-3.56,1.57-.85,3.34-1.28,5.31-1.28,1.85,0,3.53.39,5.04,1.17,1.51.78,2.72,1.91,3.62,3.38.9,1.48,1.35,3.22,1.35,5.24l-14.33,2.77c.41.96,1.05,1.68,1.93,2.16s1.95.72,3.22.72c1.01,0,1.9-.15,2.68-.45ZM72.14,217.7c-.89.91-1.36,2.17-1.4,3.78l9.43-1.84c-.26-1.01-.8-1.81-1.62-2.41-.82-.6-1.8-.9-2.95-.9-1.42,0-2.57.46-3.46,1.37Z"/>
    <path class="cls-9" d="M93.11,230.75c-1.62-.85-2.89-2.03-3.8-3.55-.91-1.51-1.37-3.23-1.37-5.15s.46-3.64,1.37-5.15,2.18-2.69,3.8-3.55c1.62-.85,3.45-1.28,5.49-1.28s3.86.43,5.47,1.28c1.61.85,2.87,2.03,3.78,3.55.91,1.51,1.37,3.23,1.37,5.15s-.46,3.64-1.37,5.15c-.91,1.51-2.17,2.69-3.78,3.55-1.61.85-3.43,1.28-5.47,1.28s-3.87-.43-5.49-1.28ZM102.14,225.96c.92-.97,1.39-2.27,1.39-3.91s-.46-2.93-1.39-3.91c-.92-.97-2.11-1.46-3.55-1.46s-2.63.49-3.56,1.46c-.94.97-1.4,2.27-1.4,3.91s.47,2.93,1.4,3.91c.94.97,2.12,1.46,3.56,1.46s2.62-.49,3.55-1.46Z"/>
    <path class="cls-9" d="M116.76,230.75c-1.64-.85-2.93-2.03-3.85-3.55-.92-1.51-1.39-3.23-1.39-5.15s.46-3.64,1.39-5.15,2.21-2.69,3.85-3.55c1.64-.85,3.5-1.28,5.56-1.28s3.82.43,5.35,1.28c1.52.85,2.63,2.07,3.33,3.65l-4.36,2.34c-1.01-1.78-2.46-2.66-4.36-2.66-1.46,0-2.68.48-3.64,1.44-.96.96-1.44,2.27-1.44,3.92s.48,2.96,1.44,3.92c.96.96,2.17,1.44,3.64,1.44,1.92,0,3.37-.89,4.36-2.66l4.36,2.38c-.7,1.54-1.81,2.74-3.33,3.6-1.52.86-3.31,1.3-5.35,1.3s-3.92-.43-5.56-1.28Z"/>
    <path class="cls-9" d="M137.71,230.75c-1.62-.85-2.89-2.03-3.8-3.55-.91-1.51-1.37-3.23-1.37-5.15s.46-3.64,1.37-5.15,2.18-2.69,3.8-3.55c1.62-.85,3.45-1.28,5.49-1.28s3.86.43,5.47,1.28c1.61.85,2.87,2.03,3.78,3.55.91,1.51,1.37,3.23,1.37,5.15s-.46,3.64-1.37,5.15c-.91,1.51-2.17,2.69-3.78,3.55-1.61.85-3.43,1.28-5.47,1.28s-3.87-.43-5.49-1.28ZM146.75,225.96c.92-.97,1.39-2.27,1.39-3.91s-.46-2.93-1.39-3.91c-.92-.97-2.11-1.46-3.55-1.46s-2.63.49-3.56,1.46c-.94.97-1.4,2.27-1.4,3.91s.47,2.93,1.4,3.91c.94.97,2.12,1.46,3.56,1.46s2.62-.49,3.55-1.46Z"/>
    <path class="cls-9" d="M177.29,205.03v26.71h-5.36v-2.23c-1.39,1.68-3.41,2.52-6.05,2.52-1.82,0-3.47-.41-4.95-1.22-1.48-.82-2.63-1.98-3.47-3.49-.84-1.51-1.26-3.26-1.26-5.26s.42-3.74,1.26-5.26c.84-1.51,2-2.68,3.47-3.49,1.48-.82,3.13-1.22,4.95-1.22,2.47,0,4.4.78,5.79,2.34v-9.4h5.62ZM170.38,225.96c.94-.97,1.4-2.27,1.4-3.91s-.47-2.93-1.4-3.91c-.94-.97-2.11-1.46-3.53-1.46s-2.63.49-3.56,1.46c-.94.97-1.4,2.27-1.4,3.91s.47,2.93,1.4,3.91c.94.97,2.12,1.46,3.56,1.46s2.59-.49,3.53-1.46Z"/>
    <path class="cls-9" d="M194.91,227.08c.78-.3,1.51-.77,2.18-1.42l2.99,3.24c-1.82,2.09-4.49,3.13-7.99,3.13-2.18,0-4.12-.43-5.8-1.28-1.68-.85-2.98-2.03-3.89-3.55-.91-1.51-1.37-3.23-1.37-5.15s.45-3.61,1.35-5.13c.9-1.52,2.14-2.71,3.71-3.56,1.57-.85,3.34-1.28,5.31-1.28,1.85,0,3.53.39,5.04,1.17,1.51.78,2.72,1.91,3.62,3.38.9,1.48,1.35,3.22,1.35,5.24l-14.33,2.77c.41.96,1.05,1.68,1.93,2.16.88.48,1.95.72,3.22.72,1.01,0,1.9-.15,2.68-.45ZM187.95,217.7c-.89.91-1.36,2.17-1.4,3.78l9.43-1.84c-.26-1.01-.8-1.81-1.62-2.41s-1.8-.9-2.95-.9c-1.42,0-2.57.46-3.46,1.37Z"/>
    <path class="cls-9" d="M221.55,213.32c1.48.83,2.63,1.99,3.47,3.49s1.26,3.25,1.26,5.24-.42,3.74-1.26,5.24-2,2.66-3.47,3.49-3.11,1.24-4.91,1.24c-2.66,0-4.69-.84-6.08-2.52v2.23h-5.36v-26.71h5.62v9.4c1.42-1.56,3.36-2.34,5.83-2.34,1.8,0,3.44.41,4.91,1.24ZM219.21,225.96c.92-.97,1.39-2.27,1.39-3.91s-.46-2.93-1.39-3.91c-.92-.97-2.11-1.46-3.54-1.46s-2.62.49-3.55,1.46c-.92.97-1.38,2.27-1.38,3.91s.46,2.93,1.38,3.91c.92.97,2.11,1.46,3.55,1.46s2.62-.49,3.54-1.46Z"/>
    <path class="cls-9" d="M238.11,212.8c1.14-.48,2.45-.72,3.94-.72v5.18c-.62-.05-1.04-.07-1.26-.07-1.61,0-2.87.45-3.78,1.35-.91.9-1.37,2.25-1.37,4.05v9.14h-5.62v-19.37h5.36v2.56c.67-.94,1.58-1.64,2.72-2.12Z"/>
  </g>
</svg>